<svg xmlns="http://www.w3.org/2000/svg" xmlns:xlink="http://www.w3.org/1999/xlink" width="500" zoomAndPan="magnify" viewBox="0 0 375 374.999991" height="500" preserveAspectRatio="xMidYMid meet" version="1.2"><defs><clipPath id="f06e9b1944"><path d="M 186 59.542969 L 285.902344 59.542969 L 285.902344 178 L 186 178 Z M 186 59.542969 "/></clipPath><clipPath id="9f51797561"><path d="M 73.652344 63 L 285.902344 63 L 285.902344 317.535156 L 73.652344 317.535156 Z M 73.652344 63 "/></clipPath></defs><g id="7295eae251"><g style="fill:#2b2b2b;fill-opacity:1;"><g transform="translate(111.686056, 218.018545)"><path style="stroke:none" d="M 7.546875 -0.421875 C 10.015625 -0.421875 12.148438 -1.300781 13.953125 -3.0625 C 15.765625 -4.820312 16.671875 -6.984375 16.671875 -9.546875 L 16.671875 -89.890625 C 16.671875 -92.359375 15.765625 -94.492188 13.953125 -96.296875 C 12.148438 -98.097656 10.015625 -99 7.546875 -99 C 7.265625 -99 7.125 -99.097656 7.125 -99.296875 C 7.125 -99.578125 7.265625 -99.71875 7.546875 -99.71875 L 66.53125 -99.71875 C 73.363281 -99.71875 79.816406 -98.410156 85.890625 -95.796875 C 91.972656 -93.179688 97.316406 -89.59375 101.921875 -85.03125 C 106.523438 -80.476562 110.109375 -75.160156 112.671875 -69.078125 C 115.242188 -63.003906 116.53125 -56.550781 116.53125 -49.71875 C 116.53125 -42.78125 115.242188 -36.296875 112.671875 -30.265625 C 110.109375 -24.234375 106.523438 -18.914062 101.921875 -14.3125 C 97.316406 -9.707031 91.972656 -6.097656 85.890625 -3.484375 C 79.816406 -0.878906 73.363281 0.421875 66.53125 0.421875 L 7.546875 0.421875 C 7.265625 0.421875 7.125 0.28125 7.125 0 C 7.125 -0.28125 7.265625 -0.421875 7.546875 -0.421875 Z M 66.53125 -99 L 22.796875 -99 C 24.597656 -98.238281 26.066406 -97.023438 27.203125 -95.359375 C 28.347656 -93.703125 28.921875 -91.878906 28.921875 -89.890625 L 28.921875 -0.421875 L 66.53125 -0.421875 C 71.75 -0.421875 76.632812 -1.703125 81.1875 -4.265625 C 85.75 -6.835938 89.765625 -10.378906 93.234375 -14.890625 C 96.703125 -19.398438 99.410156 -24.617188 101.359375 -30.546875 C 103.304688 -36.484375 104.28125 -42.875 104.28125 -49.71875 C 104.28125 -56.457031 103.304688 -62.816406 101.359375 -68.796875 C 99.410156 -74.785156 96.703125 -80.035156 93.234375 -84.546875 C 89.765625 -89.054688 85.75 -92.59375 81.1875 -95.15625 C 76.632812 -97.71875 71.75 -99 66.53125 -99 Z M 66.53125 -99 "/></g></g><g style="fill:#2b2b2b;fill-opacity:1;"><g transform="translate(109.324567, 278.462285)"><path style="stroke:none" d="M 34 -70.6875 C 33.800781 -70.6875 33.648438 -70.785156 33.546875 -70.984375 C 33.453125 -71.179688 33.40625 -71.328125 33.40625 -71.421875 C 33.40625 -72.210938 33.972656 -73.894531 35.109375 -76.46875 C 36.253906 -79.050781 37.988281 -82.046875 40.3125 -85.453125 C 42.644531 -88.867188 45.613281 -92.210938 49.21875 -95.484375 C 52.832031 -98.753906 57.085938 -101.476562 61.984375 -103.65625 C 66.890625 -105.832031 72.515625 -106.921875 78.859375 -106.921875 C 82.617188 -106.921875 86.304688 -106.300781 89.921875 -105.0625 C 93.535156 -103.820312 96.28125 -102.363281 98.15625 -100.6875 C 100.925781 -101.375 104.066406 -101.890625 107.578125 -102.234375 C 111.097656 -102.585938 114.539062 -102.765625 117.90625 -102.765625 C 123.15625 -102.765625 128.15625 -102.289062 132.90625 -101.34375 C 137.65625 -100.40625 141.664062 -99.144531 144.9375 -97.5625 C 147.007812 -98.75 148.835938 -99.910156 150.421875 -101.046875 C 152.015625 -102.191406 153.207031 -102.765625 154 -102.765625 C 154.394531 -102.765625 154.59375 -102.515625 154.59375 -102.015625 C 154.59375 -101.523438 153.800781 -100.859375 152.21875 -100.015625 C 150.632812 -99.171875 148.847656 -98.054688 146.859375 -96.671875 C 151.515625 -94.203125 155.300781 -90.785156 158.21875 -86.421875 C 161.144531 -82.066406 162.609375 -77.164062 162.609375 -71.71875 C 162.609375 -67.957031 161.691406 -64.441406 159.859375 -61.171875 C 158.023438 -57.910156 155.597656 -55.066406 152.578125 -52.640625 C 149.554688 -50.210938 146.265625 -48.304688 142.703125 -46.921875 C 139.140625 -45.535156 135.628906 -44.84375 132.171875 -44.84375 C 130.378906 -44.84375 128.539062 -45.238281 126.65625 -46.03125 C 124.78125 -46.820312 123.222656 -47.660156 121.984375 -48.546875 C 120.753906 -49.441406 120.140625 -50.039062 120.140625 -50.34375 C 120.140625 -50.832031 120.4375 -51.078125 121.03125 -51.078125 C 121.320312 -51.078125 122.304688 -50.429688 123.984375 -49.140625 C 125.671875 -47.859375 127.753906 -47.21875 130.234375 -47.21875 C 133.898438 -47.21875 137.21875 -48.132812 140.1875 -49.96875 C 143.15625 -51.800781 145.726562 -54.203125 147.90625 -57.171875 C 150.082031 -60.140625 151.738281 -63.378906 152.875 -66.890625 C 154.019531 -70.410156 154.59375 -73.804688 154.59375 -77.078125 C 154.59375 -80.835938 153.773438 -84.273438 152.140625 -87.390625 C 150.503906 -90.503906 148.003906 -93.003906 144.640625 -94.890625 C 140.484375 -92.015625 136.597656 -87.976562 132.984375 -82.78125 C 129.367188 -77.59375 125.753906 -71.601562 122.140625 -64.8125 C 118.523438 -58.03125 114.488281 -50.78125 110.03125 -43.0625 C 106.769531 -37.320312 102.984375 -31.800781 98.671875 -26.5 C 94.367188 -21.207031 89.71875 -16.503906 84.71875 -12.390625 C 79.71875 -8.285156 74.46875 -5.046875 68.96875 -2.671875 C 63.476562 -0.296875 57.863281 0.890625 52.125 0.890625 C 47.570312 0.890625 43.507812 -0.0703125 39.9375 -2 C 36.375 -3.9375 34.59375 -7.03125 34.59375 -11.28125 C 34.59375 -12.96875 35.0625 -14.425781 36 -15.65625 C 36.945312 -16.894531 38.3125 -17.515625 40.09375 -17.515625 C 41.78125 -17.515625 43.21875 -16.992188 44.40625 -15.953125 C 45.59375 -14.921875 46.1875 -13.5625 46.1875 -11.875 C 46.1875 -10.59375 45.9375 -9.601562 45.4375 -8.90625 C 44.945312 -8.21875 44.703125 -7.476562 44.703125 -6.6875 C 44.703125 -5.101562 45.441406 -3.738281 46.921875 -2.59375 C 48.410156 -1.457031 50.835938 -0.890625 54.203125 -0.890625 C 59.453125 -0.890625 64.300781 -2.101562 68.75 -4.53125 C 73.207031 -6.957031 77.289062 -10.125 81 -14.03125 C 84.71875 -17.945312 88.109375 -22.28125 91.171875 -27.03125 C 94.242188 -31.78125 97.039062 -36.503906 99.5625 -41.203125 C 102.09375 -45.910156 104.394531 -50.191406 106.46875 -54.046875 C 109.144531 -59.003906 112.390625 -64.101562 116.203125 -69.34375 C 120.015625 -74.59375 124.195312 -79.566406 128.75 -84.265625 C 133.300781 -88.972656 137.953125 -92.863281 142.703125 -95.9375 C 138.648438 -97.914062 134.441406 -99.25 130.078125 -99.9375 C 125.722656 -100.632812 121.664062 -100.984375 117.90625 -100.984375 C 114.445312 -100.984375 111.253906 -100.882812 108.328125 -100.6875 C 105.410156 -100.488281 102.515625 -100.039062 99.640625 -99.34375 C 101.921875 -96.769531 103.476562 -93.921875 104.3125 -90.796875 C 105.15625 -87.679688 105.578125 -84.492188 105.578125 -81.234375 C 105.578125 -75.878906 104.363281 -70.53125 101.9375 -65.1875 C 99.519531 -59.84375 96.226562 -54.914062 92.0625 -50.40625 C 87.90625 -45.90625 83.226562 -42.316406 78.03125 -39.640625 C 72.832031 -36.972656 67.460938 -35.640625 61.921875 -35.640625 C 57.566406 -35.640625 53.753906 -37 50.484375 -39.71875 C 47.222656 -42.445312 45.59375 -46.53125 45.59375 -51.96875 C 45.59375 -56.425781 46.679688 -60.832031 48.859375 -65.1875 C 51.035156 -69.539062 53.953125 -73.648438 57.609375 -77.515625 C 61.273438 -81.378906 65.3125 -84.867188 69.71875 -87.984375 C 74.125 -91.097656 78.601562 -93.71875 83.15625 -95.84375 C 87.707031 -97.976562 91.96875 -99.441406 95.9375 -100.234375 C 93.550781 -101.921875 90.773438 -103.160156 87.609375 -103.953125 C 84.441406 -104.742188 81.425781 -105.140625 78.5625 -105.140625 C 72.914062 -105.140625 67.46875 -103.972656 62.21875 -101.640625 C 56.96875 -99.316406 52.21875 -96.023438 47.96875 -91.765625 C 44.40625 -88.203125 41.679688 -84.8125 39.796875 -81.59375 C 37.910156 -78.382812 36.570312 -75.765625 35.78125 -73.734375 C 34.988281 -71.703125 34.394531 -70.6875 34 -70.6875 Z M 47.375 -52.5625 C 47.375 -48.007812 48.535156 -44.445312 50.859375 -41.875 C 53.179688 -39.300781 56.273438 -38.015625 60.140625 -38.015625 C 64.003906 -38.015625 67.890625 -38.976562 71.796875 -40.90625 C 75.710938 -42.84375 79.425781 -45.441406 82.9375 -48.703125 C 86.445312 -51.972656 89.5625 -55.660156 92.28125 -59.765625 C 95.007812 -63.878906 97.164062 -68.140625 98.75 -72.546875 C 100.332031 -76.953125 101.125 -81.179688 101.125 -85.234375 C 101.125 -87.910156 100.925781 -90.4375 100.53125 -92.8125 C 100.132812 -95.1875 99.144531 -97.21875 97.5625 -98.90625 C 91.519531 -97.71875 85.53125 -95.515625 79.59375 -92.296875 C 73.65625 -89.078125 68.257812 -85.265625 63.40625 -80.859375 C 58.5625 -76.453125 54.675781 -71.796875 51.75 -66.890625 C 48.832031 -61.992188 47.375 -57.21875 47.375 -52.5625 Z M 47.375 -52.5625 "/></g></g><g clip-rule="nonzero" clip-path="url(#f06e9b1944)"><path style=" stroke:none;fill-rule:nonzero;fill:#000000;fill-opacity:1;" d="M 277.035156 125.496094 C 277.015625 124.945312 276.992188 124.382812 277.011719 123.828125 C 277.53125 124.015625 278 124.566406 278.402344 125.113281 C 279.828125 127.054688 281.304688 129.0625 282.289062 131.28125 C 283.039062 132.988281 283.808594 135.574219 283.175781 138.195312 C 283.007812 138.882812 282.773438 139.414062 282.460938 139.8125 C 282.195312 140.152344 281.84375 140.433594 281.476562 140.734375 C 281.226562 140.933594 280.96875 141.140625 280.730469 141.375 C 280.648438 141.453125 280.578125 141.53125 280.507812 141.613281 C 280.503906 141.507812 280.5 141.402344 280.492188 141.296875 C 280.476562 140.917969 280.460938 140.542969 280.441406 140.167969 C 280.355469 138.523438 280.214844 136.863281 280.019531 135.226562 C 279.988281 134.96875 279.757812 134.789062 279.496094 134.816406 C 279.242188 134.847656 279.058594 135.082031 279.085938 135.335938 C 279.28125 136.953125 279.421875 138.59375 279.503906 140.214844 C 279.511719 140.378906 279.519531 140.546875 279.527344 140.710938 C 277.429688 135.929688 277.214844 130.421875 277.035156 125.496094 Z M 259.15625 110.988281 C 258.554688 110.988281 257.964844 111.058594 257.382812 111.121094 C 256.984375 111.167969 256.578125 111.214844 256.175781 111.238281 C 252.9375 111.414062 249.753906 110.027344 246.941406 108.800781 L 242.285156 106.773438 C 241.996094 106.648438 241.707031 106.503906 241.621094 106.3125 C 241.484375 105.984375 241.953125 105.523438 242.46875 105.257812 C 244.445312 104.234375 246.707031 103.851562 248.894531 103.484375 C 250.007812 103.292969 251.160156 103.097656 252.242188 103.347656 C 253.140625 103.5625 253.960938 104.074219 254.710938 104.601562 C 257.019531 106.214844 259.058594 108.1875 260.804688 110.492188 C 260.296875 110.226562 259.769531 109.992188 259.253906 109.773438 L 254.25 107.632812 C 254.011719 107.53125 253.738281 107.640625 253.636719 107.878906 C 253.53125 108.117188 253.644531 108.390625 253.882812 108.492188 L 258.886719 110.636719 C 259.175781 110.757812 259.46875 110.886719 259.757812 111.019531 C 259.554688 111.003906 259.355469 110.988281 259.15625 110.988281 Z M 255.625 90.242188 C 255.675781 90.246094 255.722656 90.242188 255.773438 90.246094 C 255.945312 90.269531 256.117188 90.183594 256.214844 90.035156 C 256.226562 90.015625 256.222656 89.992188 256.230469 89.972656 C 256.953125 90.320312 257.558594 90.789062 257.996094 91.351562 C 258.96875 92.59375 259.167969 94.207031 259.382812 95.910156 C 259.394531 95.996094 259.40625 96.082031 259.417969 96.167969 C 259.214844 95.777344 259.011719 95.386719 258.792969 95 C 257.84375 93.296875 256.769531 91.722656 255.625 90.242188 Z M 249.109375 91.253906 C 247.960938 91.835938 246.769531 92.4375 245.570312 92.804688 C 243.292969 93.503906 240.804688 93.398438 238.398438 93.304688 C 236.484375 93.226562 234.515625 93.148438 232.597656 93.457031 C 232.667969 93.410156 232.734375 93.363281 232.804688 93.3125 L 232.953125 93.210938 C 234.449219 92.167969 235.761719 90.882812 237.03125 89.644531 C 237.710938 88.980469 238.414062 88.292969 239.136719 87.65625 C 241.617188 85.460938 243.902344 84.320312 246.125 84.179688 C 246.289062 84.167969 246.449219 84.167969 246.613281 84.167969 C 247.363281 84.167969 248.085938 84.28125 248.777344 84.476562 C 248.941406 84.617188 249.101562 84.757812 249.265625 84.894531 L 249.347656 85.265625 C 249.398438 85.480469 249.589844 85.628906 249.804688 85.628906 C 249.839844 85.628906 249.875 85.625 249.910156 85.617188 C 249.953125 85.605469 249.988281 85.582031 250.023438 85.5625 C 250.980469 86.433594 251.914062 87.351562 252.808594 88.328125 C 250.6875 88.265625 247.25 88.375 245.800781 88.625 C 245.546875 88.671875 245.371094 88.914062 245.417969 89.167969 C 245.460938 89.421875 245.710938 89.589844 245.960938 89.550781 C 247.5625 89.269531 251.894531 89.171875 253.660156 89.3125 C 253.691406 89.347656 253.722656 89.382812 253.753906 89.421875 C 252.132812 89.730469 250.601562 90.496094 249.109375 91.253906 Z M 229.820312 81.582031 C 229.480469 82.03125 229.164062 82.457031 228.796875 82.835938 C 226.8125 84.859375 223.734375 85.210938 220.484375 85.421875 L 212.523438 85.925781 L 219.171875 79.316406 C 220.1875 78.300781 221.238281 77.253906 222.539062 76.65625 C 223.988281 75.984375 225.652344 75.914062 227.261719 75.84375 C 227.570312 75.832031 227.882812 75.820312 228.195312 75.820312 C 228.652344 75.820312 229.105469 75.847656 229.542969 75.945312 C 230.300781 76.121094 231.019531 76.523438 231.726562 76.914062 C 232.613281 77.40625 233.515625 77.910156 234.574219 78.429688 C 234.542969 78.429688 234.515625 78.441406 234.488281 78.445312 C 233.585938 78.507812 232.691406 78.628906 231.808594 78.824219 C 230.710938 79.070312 229.628906 79.414062 228.585938 79.75 C 227.367188 80.136719 226.101562 80.539062 224.839844 80.773438 C 224.582031 80.816406 224.414062 81.0625 224.460938 81.316406 C 224.507812 81.570312 224.753906 81.738281 225.007812 81.691406 C 226.328125 81.449219 227.621094 81.039062 228.871094 80.640625 C 229.664062 80.386719 230.476562 80.128906 231.292969 79.914062 C 231.210938 79.988281 231.117188 80.046875 231.035156 80.128906 C 230.570312 80.578125 230.1875 81.089844 229.820312 81.582031 Z M 254.347656 88.453125 C 254.273438 88.441406 254.199219 88.429688 254.125 88.421875 C 253.417969 87.609375 252.691406 86.824219 251.941406 86.085938 C 252.867188 86.777344 253.675781 87.601562 254.347656 88.453125 Z M 268.136719 116.027344 C 266.972656 112.019531 267.613281 107.742188 268.484375 103.710938 C 268.601562 103.171875 268.71875 102.699219 268.992188 102.363281 C 269.152344 102.15625 269.433594 101.992188 269.679688 101.992188 C 269.757812 101.992188 269.828125 102.007812 269.898438 102.039062 C 270.136719 102.164062 270.289062 102.503906 270.4375 102.867188 L 272.859375 108.976562 C 273.542969 110.703125 274.394531 112.847656 273.957031 114.84375 C 273.734375 115.855469 273.179688 116.792969 272.71875 117.496094 C 271.714844 119.035156 270.71875 120.132812 269.792969 120.730469 C 269.820312 120.566406 269.847656 120.398438 269.878906 120.230469 C 270.238281 118.085938 270.613281 115.871094 270.464844 113.65625 C 270.445312 113.394531 270.195312 113.203125 269.964844 113.21875 C 269.703125 113.234375 269.507812 113.457031 269.527344 113.71875 C 269.648438 115.46875 269.410156 117.257812 269.128906 119.011719 C 268.984375 118.535156 268.820312 118.0625 268.65625 117.59375 C 268.476562 117.082031 268.285156 116.550781 268.136719 116.027344 Z M 263.578125 136.347656 C 261.203125 135.664062 259.25 134.257812 258.214844 132.480469 C 257.742188 131.667969 257.425781 130.746094 257.125 129.855469 L 255.394531 124.773438 C 255.171875 124.117188 255.0625 123.28125 255.492188 123.082031 C 255.550781 123.050781 255.617188 123.042969 255.691406 123.042969 C 255.992188 123.042969 256.367188 123.273438 256.675781 123.484375 C 257.441406 124.015625 258.230469 124.566406 258.929688 125.191406 C 259.300781 125.523438 259.667969 125.890625 260.015625 126.25 C 260.375 126.613281 260.742188 126.988281 261.132812 127.339844 C 262.183594 128.28125 263.382812 129.03125 264.542969 129.757812 C 265.398438 130.296875 266.285156 130.847656 267.085938 131.46875 C 268.195312 132.324219 269.898438 133.96875 270.097656 136.109375 C 269.378906 135.835938 268.667969 135.605469 267.996094 135.394531 C 266.457031 134.910156 264.546875 134.304688 263.765625 132.851562 C 263.648438 132.621094 263.363281 132.535156 263.132812 132.65625 C 262.902344 132.78125 262.816406 133.0625 262.941406 133.292969 C 263.902344 135.085938 266.015625 135.75 267.714844 136.285156 C 268.277344 136.464844 268.871094 136.664062 269.472656 136.882812 C 267.6875 136.964844 265.578125 136.917969 263.578125 136.347656 Z M 206.4375 69.507812 C 205.691406 69.65625 204.941406 69.839844 204.214844 70.015625 C 202.339844 70.476562 200.566406 70.902344 198.738281 70.824219 C 194.652344 70.628906 191.199219 67.914062 187.757812 64.8125 C 189.5 63.695312 191.488281 62.933594 193.535156 62.597656 C 198.101562 61.851562 203.160156 63.089844 209 66.390625 C 209.304688 66.5625 209.609375 66.738281 209.921875 66.917969 C 210.882812 67.472656 211.910156 68.0625 213.238281 68.722656 C 209.949219 68.066406 206.65625 67.488281 203.398438 66.917969 C 203.144531 66.871094 202.902344 67.042969 202.859375 67.296875 C 202.8125 67.550781 202.984375 67.792969 203.238281 67.839844 C 205.5 68.238281 207.777344 68.640625 210.0625 69.066406 C 208.851562 69.128906 207.636719 69.269531 206.4375 69.507812 Z M 227.84375 66.375 C 227.585938 66.351562 227.308594 66.234375 227.042969 66.121094 L 226.777344 66.003906 C 227.289062 65.890625 227.816406 65.832031 228.339844 65.804688 C 228.546875 65.867188 228.75 65.921875 228.957031 65.972656 C 228.59375 66.226562 228.21875 66.40625 227.84375 66.375 Z M 227.132812 64.339844 C 226.464844 63.976562 225.949219 63.472656 225.675781 62.914062 C 226.09375 62.878906 226.582031 63.101562 226.957031 63.3125 C 227.667969 63.722656 228.308594 64.246094 228.867188 64.851562 C 228.859375 64.851562 228.84375 64.847656 228.835938 64.847656 C 228.703125 64.847656 228.578125 64.859375 228.441406 64.863281 C 227.988281 64.726562 227.542969 64.5625 227.132812 64.339844 Z M 228.148438 61.453125 C 228.578125 61.84375 228.917969 62.320312 229.125 62.8125 C 229.15625 63.15625 229.207031 63.492188 229.269531 63.820312 C 229.261719 63.8125 229.257812 63.808594 229.25 63.800781 C 228.796875 63.316406 228.371094 62.859375 228.226562 62.304688 C 228.160156 62.042969 228.15625 61.746094 228.148438 61.457031 C 228.148438 61.457031 228.148438 61.453125 228.148438 61.453125 Z M 230.082031 61.480469 C 230.128906 61.175781 230.207031 60.964844 230.320312 60.847656 C 230.378906 61.046875 230.460938 61.238281 230.542969 61.425781 C 230.578125 61.507812 230.617188 61.589844 230.648438 61.675781 C 230.789062 62.015625 230.863281 62.375 230.898438 62.738281 C 230.878906 62.832031 230.894531 62.929688 230.929688 63.019531 C 230.9375 63.320312 230.90625 63.542969 230.824219 63.707031 C 230.730469 63.917969 230.527344 64.097656 230.308594 64.230469 C 230.289062 64.144531 230.273438 64.058594 230.253906 63.972656 C 230.277344 63.714844 230.269531 63.445312 230.214844 63.164062 C 230.179688 62.984375 230.121094 62.804688 230.054688 62.625 C 230.03125 62.238281 230.023438 61.859375 230.082031 61.480469 Z M 232.90625 62.714844 C 232.875 62.910156 232.816406 63.066406 232.734375 63.171875 C 232.65625 63.273438 232.527344 63.363281 232.386719 63.464844 L 231.75 63.917969 C 231.832031 63.671875 231.871094 63.390625 231.867188 63.0625 C 232.21875 62.824219 232.574219 62.585938 232.933594 62.363281 C 232.933594 62.480469 232.921875 62.597656 232.90625 62.714844 Z M 231.820312 65.152344 C 231.957031 65.164062 232.171875 65.203125 232.351562 65.300781 C 232.035156 65.46875 231.726562 65.582031 231.429688 65.636719 C 231.25 65.667969 231.074219 65.675781 230.902344 65.667969 L 231.632812 65.148438 C 231.695312 65.148438 231.757812 65.144531 231.820312 65.152344 Z M 244.433594 73.402344 C 244.289062 73.617188 244.035156 73.796875 243.664062 73.949219 C 242.914062 74.253906 242.109375 74.261719 241.515625 73.980469 C 241.769531 73.824219 242.0625 73.6875 242.378906 73.578125 C 242.867188 73.414062 243.382812 73.320312 243.898438 73.242188 C 244.089844 73.253906 244.28125 73.269531 244.464844 73.269531 L 244.46875 73.269531 C 244.476562 73.277344 244.484375 73.285156 244.488281 73.292969 C 244.476562 73.320312 244.460938 73.359375 244.433594 73.402344 Z M 242.5625 71.667969 C 242.8125 71.871094 243.070312 72.058594 243.339844 72.238281 C 242.316406 72.054688 241.335938 71.625 240.507812 70.996094 C 241.265625 71.132812 241.964844 71.378906 242.5625 71.667969 Z M 242.011719 69.523438 C 242.3125 69.710938 242.59375 69.886719 242.855469 70.09375 C 243.03125 70.234375 243.191406 70.398438 243.34375 70.566406 C 243.398438 70.761719 243.460938 70.953125 243.535156 71.136719 C 243.378906 71.046875 243.234375 70.949219 243.066406 70.867188 C 242.683594 70.546875 242.332031 70.195312 242.015625 69.8125 C 241.890625 69.660156 241.761719 69.496094 241.699219 69.328125 C 241.800781 69.398438 241.90625 69.460938 242.011719 69.523438 Z M 244.492188 68.300781 L 244.605469 68.15625 C 244.617188 68.144531 244.628906 68.132812 244.636719 68.117188 C 244.855469 68.546875 245.046875 68.988281 245.164062 69.4375 C 245.371094 70.222656 245.324219 70.960938 245.03125 71.519531 C 245.027344 71.523438 245.027344 71.523438 245.023438 71.527344 C 244.824219 71.007812 244.539062 70.519531 244.179688 70.089844 C 244.039062 69.410156 244.152344 68.738281 244.492188 68.300781 Z M 247.414062 68.976562 C 247.355469 69.660156 246.824219 70.324219 246.347656 70.792969 C 246.300781 70.835938 246.25 70.875 246.203125 70.917969 C 246.191406 70.925781 246.179688 70.925781 246.171875 70.933594 C 246.21875 70.625 246.234375 70.3125 246.207031 69.980469 C 246.230469 69.953125 246.261719 69.9375 246.28125 69.90625 C 246.535156 69.476562 246.949219 69.152344 247.414062 68.976562 Z M 246.929688 72.492188 C 246.539062 72.746094 246.082031 72.792969 245.550781 72.652344 C 245.941406 72.378906 246.3125 72.078125 246.664062 71.761719 C 246.988281 71.652344 247.328125 71.570312 247.679688 71.550781 C 247.519531 71.90625 247.28125 72.261719 246.929688 72.492188 Z M 284.558594 177.457031 C 284.558594 177.457031 284.5625 177.457031 284.566406 177.457031 C 284.820312 177.457031 285.027344 177.25 285.035156 176.992188 C 285.128906 168.464844 285.230469 158.851562 281.675781 150.375 C 281.257812 148.507812 280.933594 146.5625 280.707031 144.542969 C 280.648438 144.023438 280.609375 143.496094 280.578125 142.96875 C 280.703125 142.855469 280.824219 142.707031 280.949219 142.550781 C 281.078125 142.386719 281.222656 142.203125 281.382812 142.042969 C 281.597656 141.839844 281.832031 141.648438 282.0625 141.460938 C 282.457031 141.144531 282.867188 140.8125 283.203125 140.386719 C 283.597656 139.882812 283.886719 139.238281 284.085938 138.414062 C 284.78125 135.539062 283.957031 132.742188 283.144531 130.902344 C 282.121094 128.589844 280.613281 126.539062 279.160156 124.558594 C 278.503906 123.671875 277.679688 122.765625 276.546875 122.828125 C 276.3125 122.839844 276.121094 123.023438 276.101562 123.257812 C 276.042969 124.023438 276.070312 124.789062 276.097656 125.53125 C 276.304688 131.132812 276.542969 137.476562 279.511719 142.792969 C 279.550781 142.867188 279.59375 142.925781 279.636719 142.972656 C 279.671875 143.527344 279.714844 144.089844 279.777344 144.648438 C 279.871094 145.492188 279.988281 146.316406 280.113281 147.136719 C 279.027344 145.15625 277.785156 143.265625 276.53125 141.421875 C 276.167969 140.578125 275.621094 139.773438 274.917969 139.050781 C 274.105469 137.855469 273.304688 136.636719 272.542969 135.394531 C 272.539062 135.332031 272.519531 135.273438 272.488281 135.214844 C 271.160156 132.75 269.785156 130.203125 269.394531 127.414062 C 269.140625 125.585938 269.320312 123.769531 269.609375 121.894531 C 270.867188 121.339844 272.179688 120.042969 273.503906 118.011719 C 274.007812 117.238281 274.617188 116.203125 274.871094 115.042969 C 275.371094 112.769531 274.460938 110.472656 273.730469 108.632812 L 271.308594 102.519531 C 271.144531 102.113281 270.898438 101.496094 270.320312 101.203125 C 269.570312 100.828125 268.714844 101.207031 268.257812 101.773438 C 267.828125 102.3125 267.675781 103.007812 267.566406 103.515625 C 266.671875 107.664062 266.011719 112.082031 267.234375 116.289062 C 267.394531 116.835938 267.585938 117.378906 267.773438 117.90625 C 268.214844 119.160156 268.632812 120.347656 268.65625 121.597656 C 268.65625 121.640625 268.675781 121.679688 268.6875 121.71875 C 268.453125 123.25 268.285156 124.800781 268.363281 126.351562 C 267.046875 122.46875 266.117188 118.421875 265.214844 114.460938 C 264.132812 109.726562 263.023438 104.878906 261.25 100.296875 C 261.359375 100.15625 261.386719 99.957031 261.296875 99.789062 C 260.664062 98.605469 260.496094 97.242188 260.316406 95.796875 C 260.09375 94.039062 259.863281 92.222656 258.742188 90.777344 C 258.035156 89.871094 256.984375 89.1875 255.742188 88.777344 C 254.449219 86.855469 252.453125 84.910156 250 83.914062 L 248.871094 78.992188 C 248.71875 78.320312 248.558594 77.625 248.300781 76.960938 C 247.789062 75.652344 246.929688 74.535156 246.148438 73.667969 C 246.699219 73.65625 247.132812 73.476562 247.445312 73.273438 C 248.070312 72.859375 248.535156 72.152344 248.789062 71.222656 C 248.828125 71.09375 248.804688 70.949219 248.726562 70.835938 C 248.648438 70.722656 248.523438 70.652344 248.386719 70.636719 C 248.167969 70.613281 247.949219 70.605469 247.730469 70.613281 C 248.25 69.871094 248.453125 69.144531 248.324219 68.441406 C 248.292969 68.285156 248.191406 68.15625 248.039062 68.09375 C 248.023438 68.085938 248 68.085938 247.984375 68.082031 C 247.878906 67.980469 247.730469 67.921875 247.574219 67.953125 C 246.964844 68.074219 246.394531 68.394531 245.953125 68.835938 C 245.710938 68.117188 245.359375 67.464844 245.011719 66.832031 C 244.898438 66.632812 244.65625 66.539062 244.441406 66.621094 C 244.222656 66.699219 244.097656 66.921875 244.140625 67.148438 C 244.15625 67.230469 243.992188 67.429688 243.882812 67.558594 C 243.835938 67.617188 243.789062 67.675781 243.75 67.730469 C 243.4375 68.132812 243.265625 68.648438 243.210938 69.199219 C 242.980469 69.035156 242.742188 68.875 242.507812 68.730469 C 242.078125 68.464844 241.675781 68.214844 241.351562 67.886719 C 241.199219 67.726562 240.953125 67.699219 240.765625 67.820312 C 240.578125 67.9375 240.5 68.171875 240.582031 68.378906 C 240.636719 68.523438 240.65625 68.707031 240.671875 68.898438 C 240.695312 69.121094 240.71875 69.371094 240.804688 69.625 C 240.878906 69.824219 240.984375 70.003906 241.101562 70.164062 C 240.71875 70.074219 240.328125 70.007812 239.941406 69.96875 C 239.816406 69.957031 239.6875 69.949219 239.5625 69.9375 C 239.453125 69.933594 239.339844 69.921875 239.226562 69.910156 C 239.027344 69.894531 238.855469 69.992188 238.769531 70.160156 C 238.679688 70.328125 238.703125 70.535156 238.824219 70.679688 C 239.621094 71.625 240.6875 72.347656 241.851562 72.785156 C 241.097656 73.078125 240.472656 73.5 240.050781 74.03125 C 239.917969 74.195312 239.917969 74.417969 240.035156 74.589844 C 240.148438 74.753906 240.371094 74.828125 240.566406 74.765625 C 240.648438 74.742188 240.726562 74.714844 240.84375 74.679688 C 241.316406 74.976562 241.890625 75.125 242.492188 75.125 C 242.992188 75.125 243.511719 75.023438 244.019531 74.816406 C 244.539062 74.605469 244.910156 74.328125 245.164062 73.980469 C 245.976562 74.839844 246.90625 75.960938 247.421875 77.300781 C 247.660156 77.902344 247.808594 78.5625 247.957031 79.203125 L 248.910156 83.355469 C 246.632812 81.480469 244.261719 79.882812 241.929688 78.519531 C 241.941406 78.503906 241.953125 78.488281 241.960938 78.46875 C 242.054688 78.226562 241.9375 77.957031 241.695312 77.863281 C 236.46875 75.8125 232.066406 71.351562 230.421875 66.546875 C 230.609375 66.585938 230.808594 66.609375 231.007812 66.609375 C 231.203125 66.609375 231.402344 66.59375 231.597656 66.554688 C 232.199219 66.445312 232.8125 66.167969 233.429688 65.734375 C 233.46875 65.710938 233.503906 65.679688 233.539062 65.644531 C 233.707031 65.472656 233.714844 65.199219 233.554688 65.011719 C 233.476562 64.925781 233.375 64.875 233.269531 64.859375 C 233.113281 64.671875 232.90625 64.527344 232.664062 64.417969 L 232.929688 64.226562 C 233.113281 64.097656 233.3125 63.953125 233.476562 63.742188 C 233.65625 63.511719 233.769531 63.222656 233.832031 62.863281 C 233.90625 62.398438 233.875 61.910156 233.738281 61.457031 C 233.695312 61.316406 233.59375 61.207031 233.457031 61.152344 C 233.320312 61.101562 233.167969 61.117188 233.046875 61.191406 C 232.605469 61.457031 232.167969 61.738281 231.734375 62.027344 C 231.679688 61.789062 231.613281 61.554688 231.519531 61.324219 C 231.484375 61.234375 231.441406 61.140625 231.402344 61.046875 C 231.332031 60.890625 231.261719 60.734375 231.214844 60.570312 C 231.164062 60.386719 231.136719 60.171875 231.113281 59.964844 C 231.085938 59.761719 230.9375 59.597656 230.738281 59.558594 C 230.539062 59.519531 230.335938 59.613281 230.238281 59.792969 C 230.21875 59.816406 230.128906 59.863281 230.074219 59.898438 C 229.984375 59.945312 229.898438 59.992188 229.824219 60.046875 C 229.5 60.277344 229.296875 60.65625 229.191406 61.179688 C 228.878906 60.820312 228.507812 60.496094 228.101562 60.242188 C 227.894531 60.105469 227.621094 60.160156 227.476562 60.355469 C 227.195312 60.726562 227.207031 61.175781 227.210938 61.472656 C 227.21875 61.773438 227.230469 62.105469 227.300781 62.4375 C 226.34375 61.917969 225.488281 61.835938 224.832031 62.207031 C 224.644531 62.3125 224.554688 62.53125 224.609375 62.738281 C 224.863281 63.683594 225.566406 64.519531 226.582031 65.101562 C 226.128906 65.203125 225.683594 65.324219 225.246094 65.496094 C 225.070312 65.5625 224.949219 65.734375 224.945312 65.925781 C 224.941406 66.113281 225.054688 66.289062 225.230469 66.363281 L 226.675781 66.980469 C 226.992188 67.117188 227.359375 67.273438 227.769531 67.304688 C 227.824219 67.3125 227.875 67.3125 227.925781 67.3125 C 228.523438 67.3125 229.054688 67.050781 229.496094 66.746094 C 230.554688 69.902344 232.738281 72.921875 235.566406 75.28125 C 235.179688 75.109375 234.792969 74.9375 234.417969 74.78125 C 229.035156 72.527344 223.429688 70.945312 217.773438 69.679688 C 214.09375 68.246094 212.136719 67.117188 210.390625 66.105469 C 210.078125 65.925781 209.769531 65.746094 209.460938 65.574219 C 203.429688 62.167969 198.175781 60.886719 193.382812 61.675781 C 191.003906 62.066406 188.703125 62.996094 186.730469 64.375 C 186.609375 64.457031 186.539062 64.585938 186.53125 64.726562 C 186.519531 64.871094 186.574219 65.007812 186.683594 65.105469 C 190.402344 68.488281 194.121094 71.542969 198.695312 71.757812 C 198.863281 71.765625 199.03125 71.769531 199.203125 71.769531 C 200.992188 71.769531 202.742188 71.339844 204.441406 70.925781 C 205.15625 70.753906 205.894531 70.574219 206.621094 70.429688 C 210.871094 69.585938 215.28125 69.878906 219.382812 71.28125 C 219.570312 71.347656 219.773438 71.28125 219.894531 71.132812 C 224.714844 72.300781 229.472656 73.726562 234.054688 75.644531 C 236.269531 76.570312 238.707031 77.742188 241.199219 79.179688 C 239.777344 78.765625 238.308594 78.511719 236.832031 78.429688 C 234.929688 77.617188 233.53125 76.84375 232.167969 76.089844 C 231.453125 75.691406 230.640625 75.238281 229.753906 75.035156 C 228.902344 74.839844 228.046875 74.871094 227.222656 74.910156 C 225.601562 74.976562 223.765625 75.054688 222.144531 75.804688 C 220.695312 76.476562 219.539062 77.632812 218.511719 78.652344 L 210.980469 86.144531 C 210.839844 86.28125 210.800781 86.488281 210.882812 86.667969 C 210.957031 86.835938 211.125 86.945312 211.308594 86.945312 C 211.320312 86.945312 211.328125 86.941406 211.339844 86.941406 L 220.542969 86.351562 C 223.980469 86.132812 227.246094 85.75 229.464844 83.488281 C 229.878906 83.066406 230.230469 82.597656 230.570312 82.144531 C 230.933594 81.660156 231.277344 81.199219 231.6875 80.796875 C 232.472656 80.03125 233.519531 79.550781 234.609375 79.378906 C 235.082031 79.347656 235.558594 79.328125 236.035156 79.335938 C 236.363281 79.371094 236.6875 79.421875 237.007812 79.519531 C 237.167969 79.570312 237.335938 79.519531 237.457031 79.414062 C 240.949219 79.738281 244.351562 81.066406 247.089844 83.25 C 246.753906 83.230469 246.414062 83.222656 246.066406 83.246094 C 243.628906 83.402344 241.15625 84.617188 238.511719 86.960938 C 237.777344 87.609375 237.066406 88.300781 236.378906 88.972656 C 235.132812 90.1875 233.847656 91.441406 232.414062 92.445312 L 232.269531 92.546875 C 231.714844 92.925781 231.089844 93.363281 230.761719 94.050781 C 230.683594 94.214844 230.707031 94.414062 230.828125 94.554688 C 230.917969 94.660156 231.046875 94.71875 231.183594 94.71875 C 231.226562 94.71875 231.273438 94.714844 231.316406 94.703125 C 233.558594 94.046875 236 94.144531 238.359375 94.242188 C 240.847656 94.34375 243.417969 94.445312 245.847656 93.699219 C 247.121094 93.308594 248.347656 92.6875 249.53125 92.089844 C 251.199219 91.246094 252.789062 90.449219 254.457031 90.265625 C 255.742188 91.863281 256.933594 93.585938 257.972656 95.457031 C 261.027344 100.941406 262.578125 107.183594 263.988281 113.296875 C 263.734375 112.9375 263.457031 112.582031 263.144531 112.242188 C 261.027344 108.855469 258.382812 106.023438 255.25 103.835938 C 254.421875 103.253906 253.507812 102.683594 252.453125 102.4375 C 251.191406 102.144531 249.886719 102.363281 248.734375 102.558594 C 246.480469 102.9375 244.144531 103.332031 242.039062 104.425781 C 241.125 104.898438 240.378906 105.78125 240.761719 106.679688 C 240.996094 107.230469 241.566406 107.484375 241.914062 107.632812 L 246.566406 109.660156 C 249.472656 110.925781 252.757812 112.355469 256.230469 112.171875 C 256.648438 112.148438 257.070312 112.101562 257.488281 112.050781 C 258.347656 111.957031 259.160156 111.863281 259.953125 111.980469 C 261.167969 112.15625 262.316406 112.859375 263.027344 113.859375 C 263.109375 113.976562 263.238281 114.039062 263.371094 114.050781 C 263.917969 114.878906 264.296875 115.730469 264.554688 116.453125 C 265.230469 118.347656 265.5 120.394531 265.757812 122.375 C 265.789062 122.609375 265.992188 122.785156 266.222656 122.785156 C 266.246094 122.785156 266.261719 122.78125 266.285156 122.777344 C 266.285156 122.777344 266.292969 122.777344 266.292969 122.777344 C 267.308594 126.425781 268.542969 130.019531 270.304688 133.375 C 271.007812 134.714844 271.796875 136.015625 272.617188 137.285156 C 272.109375 136.992188 271.582031 136.734375 271.050781 136.5 C 271.042969 133.777344 268.980469 131.746094 267.660156 130.726562 C 266.820312 130.078125 265.917969 129.515625 265.042969 128.964844 C 263.917969 128.257812 262.75 127.53125 261.761719 126.640625 C 261.390625 126.3125 261.03125 125.949219 260.6875 125.59375 C 260.324219 125.226562 259.949219 124.84375 259.550781 124.488281 C 258.8125 123.828125 257.996094 123.265625 257.214844 122.71875 C 256.835938 122.457031 255.953125 121.839844 255.097656 122.230469 C 254.253906 122.621094 254.03125 123.683594 254.507812 125.070312 L 256.234375 130.15625 C 256.554688 131.09375 256.882812 132.0625 257.402344 132.953125 C 258.578125 134.964844 260.679688 136.488281 263.320312 137.246094 C 264.957031 137.714844 266.648438 137.855469 268.1875 137.855469 C 269.035156 137.855469 269.835938 137.8125 270.5625 137.761719 C 270.734375 137.75 270.878906 137.640625 270.949219 137.492188 C 271.527344 137.757812 272.097656 138.042969 272.632812 138.390625 C 273.21875 138.769531 273.738281 139.195312 274.191406 139.652344 C 274.457031 140.042969 274.722656 140.433594 274.988281 140.820312 C 275.222656 141.164062 275.457031 141.507812 275.695312 141.855469 C 275.753906 142 275.8125 142.148438 275.859375 142.296875 C 275.914062 142.457031 276.046875 142.566406 276.199219 142.605469 C 277.722656 144.863281 279.203125 147.195312 280.347656 149.660156 C 280.5 149.992188 280.640625 150.328125 280.78125 150.664062 C 281.332031 153.136719 282.046875 155.484375 282.921875 157.675781 C 284.238281 164.089844 284.164062 170.820312 284.09375 176.984375 C 284.09375 177.242188 284.296875 177.453125 284.558594 177.457031 "/></g><g clip-rule="nonzero" clip-path="url(#9f51797561)"><path style=" stroke:none;fill-rule:nonzero;fill:#000000;fill-opacity:1;" d="M 284.355469 182.636719 C 284.488281 185.222656 284.5625 187.824219 284.5625 190.449219 C 284.5625 259.785156 237.554688 316.195312 179.777344 316.195312 C 122 316.195312 74.992188 259.785156 74.992188 190.449219 C 74.992188 121.109375 122 64.703125 179.777344 64.703125 C 180.238281 64.703125 180.695312 64.71875 181.15625 64.722656 C 181.117188 64.273438 181.113281 63.824219 181.144531 63.382812 C 180.6875 63.378906 180.234375 63.363281 179.777344 63.363281 C 121.257812 63.363281 73.652344 120.375 73.652344 190.449219 C 73.652344 260.527344 121.257812 317.535156 179.777344 317.535156 C 238.296875 317.535156 285.902344 260.527344 285.902344 190.449219 C 285.902344 187.867188 285.828125 185.304688 285.699219 182.757812 C 285.246094 182.71875 284.796875 182.675781 284.355469 182.636719 "/></g></g></svg>